<svg xmlns="http://www.w3.org/2000/svg" width="21.982" height="23.033" viewBox="0 0 21.982 23.033">
  <defs>
    <style>
      .cls-1 {
        stroke: #000;
      }
    </style>
  </defs>
  <g id="AI_Search" transform="translate(-266.5 -420.5)">
    <path id="路径_304" data-name="路径 304" class="cls-1" d="M35.855,27.583A7.773,7.773,0,0,0,27.927,20,7.773,7.773,0,0,0,20,27.583a7.773,7.773,0,0,0,7.927,7.583A7.773,7.773,0,0,0,35.855,27.583Zm-7.927,6.336a6.861,6.861,0,0,1-4.686-1.854,6.153,6.153,0,0,1,0-8.965,6.85,6.85,0,0,1,9.372,0,6.153,6.153,0,0,1,0,8.965A6.861,6.861,0,0,1,27.927,33.919Z" transform="translate(247 401)"/>
    <path id="路径_305" data-name="路径 305" class="cls-1" d="M65.731,64.754h0L63.485,61.72,59.473,56.3,58.2,59.269l6.576,6.557h0a.542.542,0,0,0,.46.206.623.623,0,0,0,.46-.206A.823.823,0,0,0,65.731,64.754Z" transform="translate(222 377)"/>
  </g>
</svg>
